<mxfile host="app.diagrams.net" modified="2023-09-22T15:58:43.820Z" agent="Mozilla/5.0 (Linux; Android 10; K) AppleWebKit/537.36 (KHTML, like Gecko) Chrome/117.0.0.0 Safari/537.36" version="21.8.0" etag="9KDTrH8Hh4k1SzGHkzbV" type="github">
  <diagram name="Page-1" id="34seN35zfJLYh7ENM_Uj">
    <mxGraphModel>
      <root>
        <mxCell id="0" />
        <mxCell id="1" parent="0" />
      </root>
    </mxGraphModel>
  </diagram>
</mxfile>
